<svg width="36" height="35" viewBox="0 0 36 35" fill="none" xmlns="http://www.w3.org/2000/svg">
<path d="M19.8657 13.248L19.9877 13.9286L20.5958 13.5996L29.7722 8.6354L22.8905 16.4772L22.4345 16.9968L23.0709 17.2672L32.6735 21.3465L22.2519 20.8554L21.5612 20.8229L21.7466 21.4889L24.5444 31.54L18.4306 23.0858L18.0254 22.5256L17.6203 23.0858L11.5065 31.54L14.3042 21.4889L14.4897 20.8229L13.799 20.8554L3.37741 21.3465L12.98 17.2672L13.6164 16.9968L13.1603 16.4772L6.27864 8.6354L15.4551 13.5996L16.0632 13.9286L16.1852 13.248L18.0254 2.97844L19.8657 13.248Z" stroke="black"/>
</svg>
